<?xml version="1.0" standalone="no"?>
<!DOCTYPE svg PUBLIC "-//W3C//DTD SVG 20010904//EN"
 "http://www.w3.org/TR/2001/REC-SVG-20010904/DTD/svg10.dtd">
<svg version="1.0" xmlns="http://www.w3.org/2000/svg"
 width="256pt" height="256pt" viewBox="0 0 1024.000000 1024.000000"
 preserveAspectRatio="xMidYMid meet">
<metadata>
Created by potrace 1.16, written by Peter Selinger 2001-2019
</metadata>
<g transform="translate(0.000000,1024.000000) scale(0.100000,-0.100000)"
fill="#000000" stroke="none">
<path d="M6091 9214 c-38 -32 -49 -80 -27 -126 10 -20 48 -59 94 -93 106 -82
214 -186 284 -273 58 -73 174 -260 166 -268 -2 -2 -40 28 -84 68 -363 325
-815 565 -1247 662 -218 49 -506 56 -592 15 -69 -33 -96 -128 -55 -195 29 -46
83 -68 250 -103 178 -37 276 -62 400 -103 668 -220 1262 -684 1533 -1198 61
-115 111 -235 79 -190 -91 130 -277 323 -429 446 -164 133 -340 236 -718 424
-609 301 -813 387 -1090 459 -572 149 -1202 65 -1545 -206 -44 -35 -89 -78
-100 -96 -25 -41 -25 -103 0 -144 41 -68 106 -73 223 -20 168 78 388 135 608
158 149 16 402 6 544 -20 360 -67 757 -239 1173 -508 61 -40 112 -74 112 -77
0 -2 -40 9 -88 24 -175 57 -279 72 -511 78 l-215 4 -67 55 c-232 187 -527 260
-806 197 -198 -44 -406 -176 -528 -335 -17 -21 -34 -28 -100 -38 -598 -95
-1134 -380 -1503 -801 -157 -179 -322 -466 -322 -560 0 -89 67 -148 149 -129
28 6 69 42 196 171 88 90 195 191 237 226 189 154 421 287 671 386 126 50 332
112 400 122 38 5 34 2 -48 -41 -150 -78 -384 -221 -490 -300 -563 -423 -949
-998 -1114 -1660 -65 -263 -76 -361 -76 -685 1 -259 3 -311 23 -424 89 -512
288 -926 585 -1213 111 -107 152 -126 220 -102 26 9 50 26 64 48 40 59 36 72
-92 281 -175 286 -297 644 -346 1020 -17 126 -17 470 0 590 56 403 174 744
365 1050 196 315 470 601 781 812 102 70 292 179 334 193 14 4 27 -9 56 -52
21 -32 77 -97 125 -145 l87 -87 -166 -109 c-266 -174 -442 -323 -638 -540
-301 -334 -510 -712 -613 -1112 -45 -178 -62 -302 -67 -510 -10 -390 45 -657
202 -986 115 -242 198 -363 531 -779 373 -467 473 -633 539 -901 38 -152 54
-188 95 -209 100 -52 186 32 226 220 25 119 23 331 -4 462 -57 264 -140 428
-414 815 -179 252 -212 301 -278 412 -474 803 -310 1731 436 2456 311 302 728
540 1166 664 121 35 327 76 378 76 25 0 26 2 38 105 55 461 348 807 781 922
81 22 118 26 241 26 80 1 173 -5 208 -12 150 -29 310 -99 441 -191 73 -52 227
-197 270 -255 l23 -30 20 25 c111 141 225 250 260 250 27 0 223 -105 284 -151
177 -137 330 -368 342 -517 6 -72 -7 -106 -50 -128 -80 -41 -163 1 -290 149
-32 37 -58 65 -58 63 0 -18 73 -183 135 -306 137 -270 274 -481 572 -880 68
-90 123 -170 123 -176 0 -6 -21 -19 -47 -29 -27 -9 -96 -38 -155 -62 l-107
-46 -83 26 c-288 89 -581 125 -639 78 -56 -45 -6 -197 95 -287 30 -28 95 -67
165 -101 173 -82 191 -104 191 -236 l0 -84 -84 -66 c-169 -135 -295 -196 -481
-236 -250 -55 -513 -29 -762 74 -49 20 -95 39 -104 42 -35 11 -95 -211 -106
-392 -4 -74 -10 -105 -19 -105 -21 0 -210 69 -332 121 -739 316 -1104 929
-927 1557 53 185 178 384 315 500 34 28 66 52 71 52 5 0 9 5 9 12 0 17 -239 3
-335 -21 -45 -11 -118 -33 -164 -50 -346 -126 -620 -418 -746 -793 -61 -182
-70 -246 -69 -493 0 -245 11 -319 78 -520 143 -426 431 -761 1036 -1204 279
-205 413 -313 549 -446 278 -271 446 -555 509 -860 23 -112 24 -133 18 -318
l-6 -198 33 -36 c28 -29 40 -36 73 -36 55 0 96 24 137 80 104 143 158 340 158
578 0 266 -74 505 -231 745 -171 260 -360 430 -885 795 -252 175 -373 266
-500 376 -379 328 -572 721 -567 1159 1 202 16 256 25 95 14 -252 91 -476 243
-708 206 -314 389 -479 1059 -952 587 -415 944 -720 1129 -969 174 -234 266
-494 266 -753 0 -193 -39 -339 -129 -488 -45 -75 -50 -111 -24 -156 34 -57
100 -52 214 18 300 182 550 450 698 748 67 135 108 252 143 405 20 93 23 130
23 330 0 238 -6 287 -60 473 -20 67 -22 83 -10 89 35 20 140 115 170 156 22
28 36 39 39 31 22 -68 29 -101 42 -181 7 -51 14 -146 14 -211 0 -68 5 -128 11
-140 33 -64 92 -90 149 -67 118 49 231 346 261 685 21 239 -18 522 -107 774
l-46 130 37 48 c42 55 115 200 144 288 74 225 79 471 14 695 -53 185 -121 305
-327 580 -93 124 -164 229 -194 289 l-47 95 3 164 2 163 30 45 c47 67 107 200
132 289 18 68 22 106 22 250 0 157 -2 177 -27 258 -101 329 -354 556 -639 574
l-88 6 -4 31 c-3 17 -8 59 -11 93 -16 163 -101 361 -199 459 -63 63 -102 80
-154 68 -76 -18 -91 -82 -41 -177 16 -32 39 -92 50 -135 37 -143 23 -387 -33
-571 l-23 -73 -1 163 c-1 181 -18 288 -74 460 -40 122 -136 305 -215 410 -160
213 -446 429 -668 503 -75 25 -149 21 -186 -10z m-1727 -1464 c176 -60 314
-227 350 -421 8 -41 22 -122 30 -180 20 -132 44 -204 100 -301 l43 -76 -46 20
c-134 58 -289 74 -351 37 -201 -123 -474 -98 -637 59 -110 106 -158 219 -158
377 0 153 45 263 151 368 134 133 339 180 518 117z m3469 -234 c60 -26 115
-84 154 -164 37 -74 38 -79 38 -186 0 -67 -5 -126 -13 -149 l-14 -37 -47 72
c-95 145 -219 258 -377 344 l-76 42 29 19 c35 26 90 54 123 64 42 12 149 10
183 -5z m657 -2582 c0 -129 -20 -223 -70 -331 -38 -81 -122 -203 -141 -203 -5
0 -53 39 -108 86 l-99 87 24 34 c13 19 37 71 54 116 47 123 65 145 166 204 49
29 105 66 124 82 19 17 38 30 43 31 4 0 7 -47 7 -106z m-520 -743 c177 -142
224 -214 224 -341 0 -174 -108 -339 -295 -452 -207 -125 -522 -137 -782 -28
-259 108 -451 325 -490 555 -8 44 -10 81 -6 83 4 2 52 -7 106 -19 148 -33 345
-37 495 -10 205 37 403 116 563 224 44 30 85 55 90 56 6 0 48 -30 95 -68z"/>
<path d="M5626 6699 c3 -5 83 -75 177 -154 95 -80 206 -175 247 -211 119 -105
195 -137 432 -184 244 -49 371 -110 498 -239 36 -36 80 -93 98 -126 l33 -60
-6 50 c-20 162 -111 390 -210 530 -60 85 -174 189 -246 226 -116 58 -187 70
-474 79 -279 9 -367 22 -493 74 -34 13 -60 20 -56 15z"/>
<path d="M3792 5473 c-18 -9 -57 -43 -86 -77 -401 -458 -506 -1112 -274 -1701
100 -254 233 -450 560 -825 336 -386 455 -584 514 -860 24 -111 24 -343 0
-448 -9 -40 -16 -88 -16 -105 0 -49 33 -94 79 -108 59 -17 119 15 178 95 111
150 162 303 172 511 l6 139 98 -94 c287 -274 461 -564 528 -875 21 -103 25
-282 8 -383 -14 -80 -1 -132 40 -161 63 -45 145 -18 231 76 145 158 225 361
237 599 15 309 -91 619 -316 917 -152 203 -359 393 -751 692 -417 318 -537
420 -679 575 -268 293 -419 553 -501 865 -49 184 -63 316 -57 510 7 195 32
337 91 500 42 116 43 128 16 155 -24 24 -35 24 -78 3z"/>
<path d="M6453 5282 c-30 -4 -63 -48 -63 -81 0 -45 36 -87 127 -148 156 -104
310 -153 490 -156 79 -2 95 1 120 19 30 22 39 50 28 91 -7 29 -57 53 -114 53
-129 0 -335 76 -476 175 -67 47 -80 52 -112 47z"/>
<path d="M6414 4858 c-23 -11 -44 -48 -44 -78 0 -34 52 -81 139 -124 185 -93
400 -125 621 -92 75 12 98 19 112 36 23 29 23 72 -1 101 -19 24 -22 24 -163
21 -212 -5 -334 20 -519 104 -102 47 -111 49 -145 32z"/>
</g>
</svg>
